<svg xmlns="http://www.w3.org/2000/svg" width="121.698" height="68.911" viewBox="0 0 121.698 68.911">
  <g id="Group_5" data-name="Group 5" transform="translate(-23.228 -16.106)">
    <g id="Group_2" data-name="Group 2">
      <g id="Group_1" data-name="Group 1">
        <path id="Path_1" data-name="Path 1" d="M31.308,71.563a1.359,1.359,0,0,1-.106.094.218.218,0,0,1-.138.039.577.577,0,0,1-.3-.15,4.229,4.229,0,0,0-.516-.327,4.377,4.377,0,0,0-.8-.327,4.5,4.5,0,0,0-2.859.189,3.346,3.346,0,0,0-1.241.969,4.459,4.459,0,0,0-.771,1.53,7.894,7.894,0,0,0,.006,4.079,4.4,4.4,0,0,0,.77,1.512,3.279,3.279,0,0,0,1.208.936,3.761,3.761,0,0,0,1.574.322,4.063,4.063,0,0,0,1.335-.188,4.381,4.381,0,0,0,.887-.41,3.982,3.982,0,0,0,.554-.411.577.577,0,0,1,.327-.188.255.255,0,0,1,.222.111l.288.355a3.256,3.256,0,0,1-.643.62,4.383,4.383,0,0,1-.875.5,5.437,5.437,0,0,1-1.059.327,5.928,5.928,0,0,1-1.192.116,4.725,4.725,0,0,1-1.922-.382,4.167,4.167,0,0,1-1.5-1.108,5.214,5.214,0,0,1-.975-1.779,8.269,8.269,0,0,1-.016-4.7,5.168,5.168,0,0,1,.97-1.794,4.345,4.345,0,0,1,1.562-1.17,5.134,5.134,0,0,1,2.122-.415,5,5,0,0,1,1.912.343,4.683,4.683,0,0,1,1.457.931Z" fill="#47484a"/>
        <path id="Path_2" data-name="Path 2" d="M39.664,69.912a5.319,5.319,0,0,1,2.123.4,4.344,4.344,0,0,1,1.579,1.147,5.085,5.085,0,0,1,.98,1.79,8.276,8.276,0,0,1,0,4.682,5.088,5.088,0,0,1-.98,1.785,4.272,4.272,0,0,1-1.579,1.141,5.845,5.845,0,0,1-4.245,0,4.3,4.3,0,0,1-1.585-1.141,5.006,5.006,0,0,1-.986-1.785,8.252,8.252,0,0,1,0-4.682,5,5,0,0,1,.986-1.79,4.374,4.374,0,0,1,1.585-1.147A5.311,5.311,0,0,1,39.664,69.912Zm0,10.517a4.092,4.092,0,0,0,1.724-.338,3.255,3.255,0,0,0,1.23-.97,4.3,4.3,0,0,0,.737-1.524,8.331,8.331,0,0,0,0-4,4.349,4.349,0,0,0-.737-1.535,3.293,3.293,0,0,0-1.23-.981,4.5,4.5,0,0,0-3.447,0,3.288,3.288,0,0,0-1.231.981,4.41,4.41,0,0,0-.743,1.535,8.168,8.168,0,0,0,0,4,4.354,4.354,0,0,0,.743,1.524,3.251,3.251,0,0,0,1.231.97A4.088,4.088,0,0,0,39.664,80.429Z" fill="#47484a"/>
        <path id="Path_3" data-name="Path 3" d="M48.785,81.116V70.089h.554a.393.393,0,0,1,.271.077.387.387,0,0,1,.1.266l.088,2.328a5.249,5.249,0,0,1,1.419-2.1A3.236,3.236,0,0,1,53.4,69.9a3.8,3.8,0,0,1,.92.106,3.464,3.464,0,0,1,.8.305l-.144.731a.2.2,0,0,1-.222.177.614.614,0,0,1-.188-.044c-.081-.03-.183-.063-.3-.1a3.839,3.839,0,0,0-.449-.1,3.8,3.8,0,0,0-.609-.044,2.838,2.838,0,0,0-2.056.776,5.543,5.543,0,0,0-1.3,2.239v7.17Z" fill="#47484a"/>
        <path id="Path_4" data-name="Path 4" d="M58.914,85.017V70.089h.576a.4.4,0,0,1,.233.061.267.267,0,0,1,.1.216l.1,1.707a5.841,5.841,0,0,1,1.713-1.585,4.192,4.192,0,0,1,2.2-.588A3.837,3.837,0,0,1,67,71.308a6.648,6.648,0,0,1,1.131,4.222,7.805,7.805,0,0,1-.316,2.256,5.419,5.419,0,0,1-.926,1.818,4.369,4.369,0,0,1-1.5,1.213,4.557,4.557,0,0,1-2.056.443,4.323,4.323,0,0,1-1.951-.41,3.955,3.955,0,0,1-1.419-1.219v5.386Zm4.621-14.263a3.618,3.618,0,0,0-1.989.57,5.493,5.493,0,0,0-1.58,1.591V78.7a3.77,3.77,0,0,0,1.4,1.341,4.223,4.223,0,0,0,3.463.033,3.356,3.356,0,0,0,1.225-1A4.524,4.524,0,0,0,66.8,77.52a7.43,7.43,0,0,0,.25-1.99,5.875,5.875,0,0,0-.9-3.618A3.112,3.112,0,0,0,63.535,70.754Z" fill="#47484a"/>
        <path id="Path_5" data-name="Path 5" d="M76.3,69.912a5.318,5.318,0,0,1,2.122.4A4.327,4.327,0,0,1,80,71.463a5.071,5.071,0,0,1,.981,1.79,8.276,8.276,0,0,1,0,4.682A5.074,5.074,0,0,1,80,79.72a4.256,4.256,0,0,1-1.579,1.141,5.845,5.845,0,0,1-4.245,0A4.307,4.307,0,0,1,72.6,79.72a5.023,5.023,0,0,1-.987-1.785,8.276,8.276,0,0,1,0-4.682,5.02,5.02,0,0,1,.987-1.79,4.379,4.379,0,0,1,1.584-1.147A5.316,5.316,0,0,1,76.3,69.912Zm0,10.517a4.091,4.091,0,0,0,1.723-.338,3.255,3.255,0,0,0,1.23-.97,4.262,4.262,0,0,0,.737-1.524,8.3,8.3,0,0,0,0-4,4.315,4.315,0,0,0-.737-1.535,3.293,3.293,0,0,0-1.23-.981,4.5,4.5,0,0,0-3.447,0,3.285,3.285,0,0,0-1.23.981,4.409,4.409,0,0,0-.743,1.535,8.137,8.137,0,0,0,0,4,4.354,4.354,0,0,0,.743,1.524,3.248,3.248,0,0,0,1.23.97A4.089,4.089,0,0,0,76.3,80.429Z" fill="#47484a"/>
        <path id="Path_6" data-name="Path 6" d="M85.424,81.116V70.089h.553a.4.4,0,0,1,.272.077.387.387,0,0,1,.094.266l.089,2.328a5.229,5.229,0,0,1,1.419-2.1,3.234,3.234,0,0,1,2.182-.76,3.8,3.8,0,0,1,.921.106,3.5,3.5,0,0,1,.8.305l-.144.731a.2.2,0,0,1-.222.177.608.608,0,0,1-.188-.044c-.082-.03-.183-.063-.305-.1a3.934,3.934,0,0,0-.449-.1,3.809,3.809,0,0,0-.61-.044,2.84,2.84,0,0,0-2.056.776,5.542,5.542,0,0,0-1.3,2.239v7.17Z" fill="#47484a"/>
        <path id="Path_7" data-name="Path 7" d="M102.036,81.116a.38.38,0,0,1-.41-.31l-.155-1.407a11.862,11.862,0,0,1-.9.8,5.428,5.428,0,0,1-.937.6,4.62,4.62,0,0,1-1.053.371,5.635,5.635,0,0,1-1.241.127,3.646,3.646,0,0,1-1.1-.166,2.706,2.706,0,0,1-.942-.51,2.5,2.5,0,0,1-.66-.88,3.057,3.057,0,0,1-.249-1.292,2.3,2.3,0,0,1,.4-1.3,3.284,3.284,0,0,1,1.247-1.042,8.232,8.232,0,0,1,2.184-.708,18.944,18.944,0,0,1,3.208-.311V73.934a3.693,3.693,0,0,0-.66-2.355,2.352,2.352,0,0,0-1.955-.825,3.707,3.707,0,0,0-1.358.221,4.884,4.884,0,0,0-.948.488,6.192,6.192,0,0,0-.632.487.677.677,0,0,1-.41.222.357.357,0,0,1-.332-.2l-.189-.322a6.423,6.423,0,0,1,1.818-1.307,5.059,5.059,0,0,1,2.161-.444,3.955,3.955,0,0,1,1.552.283,2.874,2.874,0,0,1,1.1.809,3.554,3.554,0,0,1,.659,1.275,5.843,5.843,0,0,1,.222,1.667v7.182ZM97.6,80.529a4.734,4.734,0,0,0,1.18-.138,4.414,4.414,0,0,0,1-.388,4.939,4.939,0,0,0,.859-.593q.4-.344.787-.743V75.8a19.6,19.6,0,0,0-2.71.238,7.829,7.829,0,0,0-1.873.526,2.751,2.751,0,0,0-1.086.793,1.686,1.686,0,0,0-.349,1.047,2.311,2.311,0,0,0,.183.959,1.841,1.841,0,0,0,1.18,1.047A2.837,2.837,0,0,0,97.6,80.529Z" fill="#47484a"/>
        <path id="Path_8" data-name="Path 8" d="M110.117,81.293a2.357,2.357,0,0,1-1.742-.62,2.616,2.616,0,0,1-.62-1.917V71.219H106.17a.3.3,0,0,1-.2-.066.235.235,0,0,1-.078-.189v-.409l1.884-.134.263-3.945a.3.3,0,0,1,.083-.177.245.245,0,0,1,.191-.078h.494v4.211h3.469v.787h-3.469V78.7a2.354,2.354,0,0,0,.117.782,1.437,1.437,0,0,0,.322.537,1.243,1.243,0,0,0,.482.31,1.733,1.733,0,0,0,.6.1,1.823,1.823,0,0,0,.687-.116,2.933,2.933,0,0,0,.5-.255,3.255,3.255,0,0,0,.343-.255.372.372,0,0,1,.211-.116.24.24,0,0,1,.177.111l.288.465a3.074,3.074,0,0,1-1.069.748A3.344,3.344,0,0,1,110.117,81.293Z" fill="#47484a"/>
        <path id="Path_9" data-name="Path 9" d="M118.173,66.287a.841.841,0,0,1-.083.371,1.109,1.109,0,0,1-.216.305,1,1,0,0,1-.311.211.959.959,0,0,1-.753,0,.98.98,0,0,1-.31-.211,1,1,0,0,1-.211-.305.881.881,0,0,1-.078-.371.967.967,0,0,1,.078-.382.989.989,0,0,1,.211-.316,1.014,1.014,0,0,1,.31-.211.959.959,0,0,1,.753,0,1.031,1.031,0,0,1,.311.211,1.092,1.092,0,0,1,.216.316A.922.922,0,0,1,118.173,66.287Zm-.465,3.8V81.116h-1.054V70.089Z" fill="#47484a"/>
        <path id="Path_10" data-name="Path 10" d="M127.139,69.912a5.323,5.323,0,0,1,2.123.4,4.344,4.344,0,0,1,1.579,1.147,5.1,5.1,0,0,1,.98,1.79,8.276,8.276,0,0,1,0,4.682,5.1,5.1,0,0,1-.98,1.785,4.272,4.272,0,0,1-1.579,1.141,5.845,5.845,0,0,1-4.245,0,4.294,4.294,0,0,1-1.585-1.141,5.006,5.006,0,0,1-.986-1.785,8.253,8.253,0,0,1,0-4.682,5,5,0,0,1,.986-1.79,4.366,4.366,0,0,1,1.585-1.147A5.311,5.311,0,0,1,127.139,69.912Zm0,10.517a4.1,4.1,0,0,0,1.724-.338,3.26,3.26,0,0,0,1.229-.97,4.279,4.279,0,0,0,.738-1.524,8.332,8.332,0,0,0,0-4,4.334,4.334,0,0,0-.738-1.535,3.3,3.3,0,0,0-1.229-.981,4.5,4.5,0,0,0-3.447,0,3.288,3.288,0,0,0-1.231.981,4.41,4.41,0,0,0-.743,1.535,8.137,8.137,0,0,0,0,4,4.355,4.355,0,0,0,.743,1.524,3.251,3.251,0,0,0,1.231.97A4.081,4.081,0,0,0,127.139,80.429Z" fill="#47484a"/>
        <path id="Path_11" data-name="Path 11" d="M136.26,81.116V70.089h.576a.3.3,0,0,1,.332.277l.1,1.662a6.2,6.2,0,0,1,1.758-1.535,4.373,4.373,0,0,1,2.233-.581,4.137,4.137,0,0,1,1.6.288,2.942,2.942,0,0,1,1.146.831,3.659,3.659,0,0,1,.687,1.308,5.9,5.9,0,0,1,.233,1.729v7.048h-1.052V74.068a3.782,3.782,0,0,0-.71-2.433,2.623,2.623,0,0,0-2.172-.881,3.85,3.85,0,0,0-2.018.559,5.859,5.859,0,0,0-1.662,1.535v8.268Z" fill="#47484a"/>
      </g>
    </g>
    <g id="Group_4" data-name="Group 4">
      <g id="Group_3" data-name="Group 3">
        <path id="Path_12" data-name="Path 12" d="M105.513,59.424H96.992V28.916a4.068,4.068,0,0,0-.343-1.668,4.429,4.429,0,0,0-.923-1.355,4.267,4.267,0,0,0-6.957,1.355,4.245,4.245,0,0,0-.327,1.668V59.424H79.891V28.916a4.22,4.22,0,0,0-1.236-3.023A4.267,4.267,0,0,0,71.7,27.248a4.245,4.245,0,0,0-.327,1.668V59.424H62.82V28.916a12.587,12.587,0,0,1,1-4.99A12.75,12.75,0,0,1,70.641,17.1a12.9,12.9,0,0,1,9.578-.149,12.44,12.44,0,0,1,3.963,2.458A12.746,12.746,0,0,1,97.692,17.1a12.75,12.75,0,0,1,6.823,6.822,12.587,12.587,0,0,1,1,4.99Z" fill="#00629f"/>
        <path id="Path_13" data-name="Path 13" d="M110.637,29.512a12.319,12.319,0,0,1,1.013-4.975,13.021,13.021,0,0,1,6.822-6.823,12.324,12.324,0,0,1,4.976-1.012h19.6v8.55h-19.6a4.222,4.222,0,0,0-4.26,4.26,4.36,4.36,0,0,0,.327,1.684,4.183,4.183,0,0,0,2.264,2.279,4.25,4.25,0,0,0,1.669.327H132a12.583,12.583,0,0,1,4.99,1,12.748,12.748,0,0,1,6.823,6.823,12.936,12.936,0,0,1,0,9.965,12.882,12.882,0,0,1-2.741,4.067,13.027,13.027,0,0,1-4.082,2.756A12.422,12.422,0,0,1,132,59.424H113.02V50.873H132a4.26,4.26,0,1,0,0-8.52h-8.55a12.324,12.324,0,0,1-4.976-1.013A12.98,12.98,0,0,1,111.65,34.5,12.422,12.422,0,0,1,110.637,29.512Z" fill="#00629f"/>
        <path id="Path_14" data-name="Path 14" d="M56.906,29.274A17.285,17.285,0,0,0,49.041,19.04a17.011,17.011,0,0,0-4.066-1.728,16.681,16.681,0,0,0-4.529-.61H27.621a4.276,4.276,0,0,0-4.276,4.275h0a4.276,4.276,0,0,0,4.276,4.275H40.446a8.236,8.236,0,0,1,3.307.67A8.569,8.569,0,0,1,48.3,30.481a8.556,8.556,0,0,1,0,6.643,8.572,8.572,0,0,1-4.543,4.558,8.236,8.236,0,0,1-3.307.671H27.606a4.261,4.261,0,0,0-4.261,4.26h0a4.261,4.261,0,0,0,4.261,4.26H31.9l9.563-.059,3.724,8.61H54.27L49.533,48.252a17.094,17.094,0,0,0,3.337-2.741,16.737,16.737,0,0,0,2.517-3.456,17.546,17.546,0,0,0,1.579-3.962,17.035,17.035,0,0,0-.06-8.819Z" fill="#00629f"/>
      </g>
    </g>
  </g>
</svg>
