<svg xmlns="http://www.w3.org/2000/svg" width="1396" height="437.988" viewBox="0 0 1396 437.988">
  <g id="Group_429" data-name="Group 429" transform="translate(-262 -368.012)">
    <path id="Path_32" data-name="Path 32" d="M127.414,459.559,45.49,317.662l81.924-141.9H291.259l81.924,141.9-81.924,141.9Z" transform="translate(216.51 346.441)" fill="#00619d"/>
    <path id="Path_33" data-name="Path 33" d="M124.469,438.556,49.647,308.96l74.822-129.593H274.108L348.93,308.96l-74.822,129.6Z" transform="translate(226.353 355.143)" fill="#fff"/>
    <path id="Path_34" data-name="Path 34" d="M283.691,459.559l-81.924-141.9,81.924-141.9H447.536l81.923,141.9-81.923,141.9Z" transform="translate(594.268 346.441)" fill="#00619d"/>
    <path id="Path_35" data-name="Path 35" d="M280.746,438.556l-74.822-129.6,74.822-129.593H430.385L505.207,308.96l-74.822,129.6Z" transform="translate(604.076 355.143)" fill="#fff"/>
    <path id="Path_36" data-name="Path 36" d="M440.037,459.559l-81.922-141.9,81.922-141.9H603.884l81.92,141.9-81.92,141.9Z" transform="translate(972.196 346.441)" fill="#00619d"/>
    <path id="Path_37" data-name="Path 37" d="M437.09,438.556l-74.819-129.6L437.09,179.367H586.734L661.55,308.96l-74.815,129.6Z" transform="translate(982.729 355.633)" fill="#fff"/>
    <path id="Path_38" data-name="Path 38" d="M205.507,414.433l-81.923-141.9,81.923-141.894H369.352l81.924,141.894-81.924,141.9Z" transform="translate(405.279 237.368)" fill="#00619d"/>
    <path id="Path_39" data-name="Path 39" d="M202.562,393.428,127.74,263.835l74.822-129.591H352.2l74.822,129.591L352.2,393.428Z" transform="translate(415.26 245.756)" fill="#fff"/>
    <path id="Path_40" data-name="Path 40" d="M361.846,414.433l-81.925-141.9,81.925-141.894H525.689l81.925,141.894-81.925,141.9Z" transform="translate(783.182 237.368)" fill="#00619d"/>
    <path id="Path_41" data-name="Path 41" d="M358.9,393.428,284.077,263.835,358.9,134.244H508.538l74.824,129.591L508.538,393.428Z" transform="translate(792.923 246.07)" fill="#fff"/>
    <text id="INTERNATIONAL_SOURCING" data-name="INTERNATIONAL
SOURCING" transform="translate(426 664)" font-size="25" font-family="Lato-Bold, Lato" font-weight="700" opacity="0.7"><tspan x="-99.606" y="0">INTERNATIONAL</tspan><tspan x="-64.831" y="35">SOURCING</tspan></text>
    <text id="FREIGHT_FORWARDING" data-name="FREIGHT
FORWARDING" transform="translate(693 502)" font-size="25" font-family="Lato-Bold, Lato" font-weight="700" opacity="0.7"><tspan x="-52.213" y="0">FREIGHT</tspan><tspan x="-86.119" y="35">FORWARDING</tspan></text>
    <text id="CNF_SERVICES" data-name="CNF
SERVICES" transform="translate(960 657)" font-size="25" font-family="Lato-Bold, Lato" font-weight="700" opacity="0.7"><tspan x="-24.975" y="0">CNF</tspan><tspan x="-56.5" y="35">SERVICES</tspan></text>
    <text id="LOGISTICS_SUPPORT_" data-name="LOGISTICS
 SUPPORT
" transform="translate(1227 502)" font-size="25" font-family="Lato-Bold, Lato" font-weight="700" opacity="0.7"><tspan x="-62.244" y="0">LOGISTICS</tspan><tspan x="-60.05" y="35" xml:space="preserve"> SUPPORT</tspan><tspan x="0" y="70"></tspan></text>
    <text id="DOOR_TO_DOOR_SERVICES" data-name="DOOR TO DOOR
SERVICES" transform="translate(1495 657)" font-size="25" font-family="Lato-Bold, Lato" font-weight="700" opacity="0.7"><tspan x="-98.481" y="0">DOOR TO DOOR</tspan><tspan x="-56.5" y="35">SERVICES</tspan></text>
  </g>
</svg>
