<svg xmlns="http://www.w3.org/2000/svg" width="23.394" height="23.394" viewBox="0 0 23.394 23.394">
  <g id="Group_116" data-name="Group 116" transform="translate(-295.394 -4295.579)">
    <path id="google-plus_1_" data-name="google-plus (1)" d="M0,0V23.394H23.394V0ZM13.638,12.681a4.677,4.677,0,0,1-4.9,4.135,5.161,5.161,0,1,1,0-10.323,4.9,4.9,0,0,1,3.467,1.346L10.727,9.321a2.724,2.724,0,0,0-1.985-.775A3.1,3.1,0,0,0,5.7,11.654a3.063,3.063,0,0,0,3.038,3.068,2.594,2.594,0,0,0,2.779-2.041H8.742V10.608h4.883a6.048,6.048,0,0,1,.088,1.046A6.812,6.812,0,0,1,13.638,12.681Zm6.2-.643H18.027v1.808H16.743V12.038H14.934V10.753h1.809V8.944h1.285v1.809h1.809Z" transform="translate(295.394 4295.579)"/>
  </g>
</svg>
