<svg xmlns="http://www.w3.org/2000/svg" width="23.394" height="23.394" viewBox="0 0 23.394 23.394">
  <g id="Group_112" data-name="Group 112" transform="translate(-428.971 -4295.579)">
    <path id="instagram_1_" data-name="instagram (1)" d="M11.7,9.371A2.326,2.326,0,1,0,14.023,11.7,2.329,2.329,0,0,0,11.7,9.371Zm0,0A2.326,2.326,0,1,0,14.023,11.7,2.329,2.329,0,0,0,11.7,9.371Zm3.876-3.793H7.822A2.246,2.246,0,0,0,5.578,7.822v7.751a2.246,2.246,0,0,0,2.244,2.244h7.751a2.246,2.246,0,0,0,2.244-2.244V7.822A2.246,2.246,0,0,0,15.572,5.578ZM11.7,15.726A4.029,4.029,0,1,1,15.726,11.7,4.034,4.034,0,0,1,11.7,15.726ZM15.855,8.5a.953.953,0,1,1,.953-.953A.954.954,0,0,1,15.855,8.5Zm-4.158.87A2.326,2.326,0,1,0,14.023,11.7,2.329,2.329,0,0,0,11.7,9.371Zm3.876-3.793H7.822A2.246,2.246,0,0,0,5.578,7.822v7.751a2.246,2.246,0,0,0,2.244,2.244h7.751a2.246,2.246,0,0,0,2.244-2.244V7.822A2.246,2.246,0,0,0,15.572,5.578ZM11.7,15.726A4.029,4.029,0,1,1,15.726,11.7,4.034,4.034,0,0,1,11.7,15.726ZM15.855,8.5a.953.953,0,1,1,.953-.953A.954.954,0,0,1,15.855,8.5Zm-4.158.87A2.326,2.326,0,1,0,14.023,11.7,2.329,2.329,0,0,0,11.7,9.371ZM0,0V23.394H23.394V0ZM19.518,15.572a3.95,3.95,0,0,1-3.946,3.946H7.822a3.95,3.95,0,0,1-3.946-3.946V7.822A3.95,3.95,0,0,1,7.822,3.876h7.751a3.95,3.95,0,0,1,3.946,3.946ZM15.572,5.578H7.822A2.246,2.246,0,0,0,5.578,7.822v7.751a2.246,2.246,0,0,0,2.244,2.244h7.751a2.246,2.246,0,0,0,2.244-2.244V7.822A2.246,2.246,0,0,0,15.572,5.578ZM11.7,15.726A4.029,4.029,0,1,1,15.726,11.7,4.034,4.034,0,0,1,11.7,15.726ZM15.855,8.5a.953.953,0,1,1,.953-.953A.954.954,0,0,1,15.855,8.5Zm-4.158.87A2.326,2.326,0,1,0,14.023,11.7,2.329,2.329,0,0,0,11.7,9.371Zm0,0A2.326,2.326,0,1,0,14.023,11.7,2.329,2.329,0,0,0,11.7,9.371Zm0,0A2.326,2.326,0,1,0,14.023,11.7,2.329,2.329,0,0,0,11.7,9.371Zm3.876-3.793H7.822A2.246,2.246,0,0,0,5.578,7.822v7.751a2.246,2.246,0,0,0,2.244,2.244h7.751a2.246,2.246,0,0,0,2.244-2.244V7.822A2.246,2.246,0,0,0,15.572,5.578ZM11.7,15.726A4.029,4.029,0,1,1,15.726,11.7,4.034,4.034,0,0,1,11.7,15.726ZM15.855,8.5a.953.953,0,1,1,.953-.953A.954.954,0,0,1,15.855,8.5Zm-4.158.87A2.326,2.326,0,1,0,14.023,11.7,2.329,2.329,0,0,0,11.7,9.371Zm0,0A2.326,2.326,0,1,0,14.023,11.7,2.329,2.329,0,0,0,11.7,9.371Zm0,0A2.326,2.326,0,1,0,14.023,11.7,2.329,2.329,0,0,0,11.7,9.371Zm3.876-3.793H7.822A2.246,2.246,0,0,0,5.578,7.822v7.751a2.246,2.246,0,0,0,2.244,2.244h7.751a2.246,2.246,0,0,0,2.244-2.244V7.822A2.246,2.246,0,0,0,15.572,5.578ZM11.7,15.726A4.029,4.029,0,1,1,15.726,11.7,4.034,4.034,0,0,1,11.7,15.726ZM15.855,8.5a.953.953,0,1,1,.953-.953A.954.954,0,0,1,15.855,8.5Zm-4.158.87A2.326,2.326,0,1,0,14.023,11.7,2.329,2.329,0,0,0,11.7,9.371Z" transform="translate(428.971 4295.579)"/>
  </g>
</svg>
