<svg xmlns="http://www.w3.org/2000/svg" width="23.394" height="23.394" viewBox="0 0 23.394 23.394">
  <g id="Group_115" data-name="Group 115" transform="translate(-328.788 -4295.579)">
    <rect id="Rectangle_28" data-name="Rectangle 28" width="23.394" height="23.394" transform="translate(328.788 4295.579)"/>
    <path id="Path_25" data-name="Path 25" d="M60.359,108.452a10.072,10.072,0,0,0,15.454-8.512q0-.208-.008-.414a7.914,7.914,0,0,0,1.75-1.8,8.169,8.169,0,0,1-2,.519H75.55l.005,0a3.744,3.744,0,0,0,1.537-1.961A12.268,12.268,0,0,1,75.377,97c-.166.055-.339.109-.518.159a3.534,3.534,0,0,0-6.022,3.214,10.641,10.641,0,0,1-7.253-3.666s-1.689,2.306,1.006,4.677a3.631,3.631,0,0,1-1.526-.455,3.358,3.358,0,0,0,2.793,3.508,3.233,3.233,0,0,1-1.559.065,3.483,3.483,0,0,0,3.248,2.468,6.787,6.787,0,0,1-5.189,1.483Z" transform="translate(271.528 4204.468)" fill="#fff"/>
  </g>
</svg>
