<svg xmlns="http://www.w3.org/2000/svg" width="23.394" height="23.394" viewBox="0 0 23.394 23.394">
  <g id="Group_114" data-name="Group 114" transform="translate(-362.182 -4295.579)">
    <rect id="Rectangle_29" data-name="Rectangle 29" width="23.394" height="23.394" transform="translate(362.182 4295.579)"/>
    <g id="Group_53" data-name="Group 53" transform="translate(365.698 4299.086)">
      <path id="Path_26" data-name="Path 26" d="M68.494,84.7l1.146-4.07a8.167,8.167,0,1,1,3.051,2.989Zm4.412-2.567.25.153a6.783,6.783,0,1,0-2.184-2.135l.168.262-.66,2.344Z" transform="translate(-68.494 -68.321)" fill="#fff"/>
      <path id="Path_27" data-name="Path 27" d="M149.434,152.855l-.53-.029a.641.641,0,0,0-.456.156,2.415,2.415,0,0,0-.794,1.217,3.689,3.689,0,0,0,.856,2.892,8.6,8.6,0,0,0,4.637,3.371,2.26,2.26,0,0,0,1.914-.237,1.711,1.711,0,0,0,.745-1.086l.085-.4a.275.275,0,0,0-.154-.307l-1.792-.826a.275.275,0,0,0-.332.082l-.7.912a.2.2,0,0,1-.226.067,5.508,5.508,0,0,1-2.981-2.551.2.2,0,0,1,.026-.227l.672-.778a.275.275,0,0,0,.045-.288l-.772-1.807A.275.275,0,0,0,149.434,152.855Z" transform="translate(-143.537 -148.487)" fill="#fff"/>
    </g>
  </g>
</svg>
