<svg xmlns="http://www.w3.org/2000/svg" width="23.394" height="23.394" viewBox="0 0 23.394 23.394">
  <g id="Group_113" data-name="Group 113" transform="translate(-395.576 -4295.579)">
    <g id="Group_111" data-name="Group 111">
      <rect id="Rectangle_30" data-name="Rectangle 30" width="23.394" height="23.394" transform="translate(395.576 4295.579)"/>
      <g id="Group_54" data-name="Group 54" transform="translate(400.307 4298.817)">
        <path id="Path_28" data-name="Path 28" d="M100.942,213.547a.738.738,0,0,0-.059-.26.28.28,0,0,0-.252-.172.438.438,0,0,0-.343.129.228.228,0,0,0-.057.086l0,2.77v.068l.027.036a.55.55,0,0,0,.293.18.284.284,0,0,0,.375-.224.673.673,0,0,0,.015-.14C100.945,215.2,100.946,214.372,100.942,213.547Zm0,0a.738.738,0,0,0-.059-.26.28.28,0,0,0-.252-.172.438.438,0,0,0-.343.129.228.228,0,0,0-.057.086l0,2.77v.068l.027.036a.55.55,0,0,0,.293.18.284.284,0,0,0,.375-.224.673.673,0,0,0,.015-.14C100.945,215.2,100.946,214.372,100.942,213.547Zm3.1-4.178q-4.918-.105-9.838,0a2.093,2.093,0,0,0-2.047,2.092v5.121a2.093,2.093,0,0,0,2.047,2.093q4.919.105,9.838,0a2.093,2.093,0,0,0,2.048-2.093v-5.121A2.093,2.093,0,0,0,104.044,209.369Zm-8.875,7.68h-.946V211.7h-.979v-.894H96.15v.892h-.981Zm3.384-2.219v2.219h-.837v-.507l-.063.068a1.536,1.536,0,0,1-.645.463.783.783,0,0,1-.392.035.482.482,0,0,1-.379-.3,1.172,1.172,0,0,1-.087-.483c0-.611,0-3.844,0-3.875h.835c0,.028,0,2.349.005,3.481a.925.925,0,0,0,.013.185.2.2,0,0,0,.294.164.913.913,0,0,0,.4-.317.146.146,0,0,0,.016-.085v-3.433l.838,0Zm3.185,1.776a.687.687,0,0,1-.713.5.946.946,0,0,1-.714-.326l-.081-.086v.35h-.839v-6.24h.839v2.054a.843.843,0,0,1,.09-.143.963.963,0,0,1,.483-.307.727.727,0,0,1,.87.4,1.621,1.621,0,0,1,.133.7q0,1.308,0,2.616A1.531,1.531,0,0,1,101.738,216.606Zm3.1-.175a1.026,1.026,0,0,1-.886.726,1.4,1.4,0,0,1-.8-.082,1.11,1.11,0,0,1-.634-.808,2.436,2.436,0,0,1-.061-.521c-.007-.683,0-1.367,0-2.05a1.38,1.38,0,0,1,.331-.96,1.221,1.221,0,0,1,1.045-.4,1.463,1.463,0,0,1,.364.066,1.016,1.016,0,0,1,.692.822,2.476,2.476,0,0,1,.046.465c.007.364,0,1.168,0,1.168h-1.606v1.151a.374.374,0,1,0,.748,0v-.592h.863A4.182,4.182,0,0,1,104.836,216.431Zm-.766-2.937a.374.374,0,1,0-.748,0v.646h.748Zm-3.186-.206a.28.28,0,0,0-.252-.172.438.438,0,0,0-.343.129.228.228,0,0,0-.057.086l0,2.77v.068l.027.036a.55.55,0,0,0,.293.18.284.284,0,0,0,.375-.224.673.673,0,0,0,.015-.14c0-.825,0-1.649,0-2.474A.737.737,0,0,0,100.884,213.288Z" transform="translate(-92.159 -201.809)" fill="#fff"/>
        <path id="Path_29" data-name="Path 29" d="M259.155,94.99v4.633H258.3v-.5c-.095.093-.176.181-.265.259a1.159,1.159,0,0,1-.546.284.545.545,0,0,1-.7-.371,1.224,1.224,0,0,1-.056-.346V94.99h.852v3.533a.8.8,0,0,0,.012.14.194.194,0,0,0,.274.165.916.916,0,0,0,.412-.317.153.153,0,0,0,.013-.086V94.99Z" transform="translate(-248.287 -93.351)" fill="#fff"/>
        <path id="Path_30" data-name="Path 30" d="M136.868,65.514c-.186-.785-.577-2.444-.577-2.444h-.977s.75,2.489,1.086,3.6a.443.443,0,0,1,.018.126V69.34h.9V66.795a.442.442,0,0,1,.018-.126c.336-1.11,1.086-3.6,1.086-3.6h-.977s-.39,1.658-.577,2.444Z" transform="translate(-133.099 -63.07)" fill="#fff"/>
        <path id="Path_31" data-name="Path 31" d="M196.037,92.731h0a1.229,1.229,0,0,0-1.229,1.229v2.405a1.229,1.229,0,0,0,1.229,1.229h0a1.229,1.229,0,0,0,1.229-1.229V93.96A1.229,1.229,0,0,0,196.037,92.731Zm.355,3.683a.355.355,0,1,1-.709,0v-2.5a.355.355,0,1,1,.709,0Z" transform="translate(-189.539 -91.208)" fill="#fff"/>
      </g>
    </g>
  </g>
</svg>
